<?xml version="1.0" standalone="no"?>
<!DOCTYPE svg PUBLIC "-//W3C//DTD SVG 20010904//EN"
 "http://www.w3.org/TR/2001/REC-SVG-20010904/DTD/svg10.dtd">
<svg version="1.0" xmlns="http://www.w3.org/2000/svg"
 width="2795.000000pt" height="1066.000000pt" viewBox="0 0 2795.000000 1066.000000"
 preserveAspectRatio="xMidYMid meet">

<g transform="translate(0.000000,1066.000000) scale(0.100000,-0.100000)"
fill="#000000" stroke="none">
<path d="M199 9674 c-6 -7 -26 -18 -45 -24 -37 -13 -39 -19 -25 -105 5 -29 4
-78 -1 -118 -7 -45 -7 -84 0 -119 6 -34 6 -74 -1 -124 -7 -52 -7 -101 0 -161
8 -59 8 -94 1 -109 -14 -31 -4 -63 36 -116 33 -43 38 -46 68 -39 19 5 43 13
55 19 38 21 82 14 113 -16 22 -22 29 -41 35 -90 6 -53 4 -66 -15 -97 -23 -37
-46 -43 -82 -24 -16 8 -34 6 -82 -11 -76 -28 -122 -62 -144 -106 -14 -30 -14
-41 -4 -80 9 -35 12 -266 12 -943 0 -879 0 -897 20 -929 27 -44 54 -52 170
-52 126 0 130 -3 130 -112 0 -84 -17 -133 -51 -143 -10 -3 -47 -1 -84 6 -65
11 -67 11 -113 -18 -84 -51 -104 -103 -83 -211 5 -24 4 -62 -1 -88 -7 -32 -6
-49 2 -59 25 -30 27 -69 8 -119 -11 -28 -16 -56 -11 -65 5 -12 24 -635 22
-746 0 -11 -4 -339 -9 -730 -4 -390 -11 -726 -15 -745 -6 -31 -3 -38 22 -56
24 -18 48 -22 173 -27 80 -4 169 -13 199 -21 96 -26 88 36 88 -653 l0 -608 44
-23 c36 -19 54 -22 99 -18 30 3 60 5 65 4 81 -6 748 -6 791 1 39 6 61 5 65 -1
10 -16 428 10 458 29 23 15 24 17 18 132 -3 64 -12 136 -19 161 -8 25 -11 55
-7 65 4 11 7 152 8 313 1 275 2 296 22 342 17 39 19 55 11 77 -6 19 -6 50 0
89 17 103 -21 134 -149 120 -32 -4 -76 -7 -98 -8 -55 -1 -166 46 -217 91 -49
44 -48 30 -23 271 13 119 15 196 10 275 -4 61 -7 117 -6 125 1 8 3 85 5 170 5
174 0 190 -60 190 -45 0 -80 -15 -110 -47 -25 -27 -25 -27 -52 -9 -64 41 -98
50 -200 54 -85 3 -104 7 -109 20 -12 40 -39 101 -66 146 -20 34 -27 59 -25 85
l3 36 125 7 c241 14 360 28 428 50 l67 23 0 55 c-1 30 -3 89 -5 130 l-5 74 40
23 c76 43 262 22 485 -54 l135 -46 590 7 c325 3 682 9 793 13 l204 6 21 43 20
42 -66 107 c-170 272 -342 447 -485 494 -40 14 -42 16 -42 55 l1 41 174 125
c96 69 175 131 175 138 0 8 -8 27 -17 43 -13 22 -25 29 -48 29 -17 0 -113 5
-212 11 -129 7 -203 7 -259 0 -69 -10 -81 -9 -113 7 -33 17 -36 23 -36 63 0
43 1 44 55 71 55 26 55 26 185 16 72 -5 189 -7 260 -3 153 8 139 8 243 -1 59
-5 82 -4 82 5 0 7 19 11 48 11 68 0 235 27 277 44 29 12 35 20 35 44 0 29 -2
30 -64 41 -71 13 -140 35 -172 56 l-21 13 23 109 c58 276 65 359 76 868 5 264
9 504 9 533 -1 56 0 96 1 207 1 85 -23 172 -57 210 -25 26 -29 27 -78 19 -80
-12 -107 -9 -172 19 l-60 27 -408 0 c-442 0 -458 2 -492 54 -16 24 -16 28 -2
49 l15 24 554 8 c304 4 625 11 713 14 l160 6 9 27 c16 44 -6 78 -49 78 -115 0
-247 59 -341 152 -46 44 -54 49 -73 38 -12 -6 -31 -8 -42 -5 -20 7 -21 12 -14
105 l7 98 -98 99 c-116 115 -208 179 -347 240 -227 100 -522 162 -922 193
-214 17 -2141 11 -2156 -6z m1986 -1129 c22 -4 68 -20 102 -36 61 -29 62 -30
52 -58 -9 -26 -6 -35 37 -93 51 -68 101 -168 132 -263 17 -54 18 -72 10 -170
-6 -68 -7 -151 -1 -220 5 -60 6 -146 2 -190 -5 -44 -3 -186 4 -315 14 -287 10
-280 137 -280 45 0 91 5 102 11 14 8 23 8 31 0 7 -7 105 -11 303 -11 280 0
292 -1 318 -21 15 -12 26 -30 26 -45 0 -49 -103 -81 -174 -54 -17 6 -110 3
-288 -11 -198 -15 -273 -18 -305 -10 -126 32 -183 -8 -238 -170 -29 -85 -31
-120 -9 -154 15 -23 23 -25 85 -25 66 0 69 -1 69 -24 0 -15 -12 -35 -32 -52
-69 -57 -186 -89 -366 -100 -96 -6 -113 -4 -152 13 -74 34 -84 44 -69 75 17
38 4 75 -32 93 -28 15 -35 15 -95 -5 -88 -29 -106 -23 -141 48 -25 51 -28 66
-25 144 3 102 0 106 -107 134 -49 12 -65 13 -71 4 -11 -18 -21 -8 -50 44 -23
43 -23 46 -8 79 15 31 23 35 78 46 121 24 170 102 155 249 -4 42 -6 109 -5
147 1 39 5 302 9 585 5 474 7 518 24 543 23 36 51 46 96 35 29 -8 63 -2 181
31 80 21 152 38 160 36 8 -2 33 -6 55 -10z m-634 -5020 c14 -5 19 -14 17 -28
-3 -19 -10 -22 -57 -25 -70 -4 -78 5 -56 62 l18 46 28 -25 c16 -13 38 -27 50
-30z"/>
<path d="M9843 9639 c-12 -19 -44 -82 -71 -140 -74 -155 -156 -249 -217 -249
-11 0 -38 14 -59 30 -50 38 -80 38 -169 -1 l-71 -31 -170 18 c-202 22 -579 24
-756 5 -659 -70 -1258 -294 -1779 -665 -403 -286 -775 -688 -1025 -1106 -287
-481 -453 -987 -511 -1560 -19 -182 -29 -210 -138 -368 -41 -59 -77 -115 -80
-125 -11 -29 11 -57 59 -77 77 -34 73 -69 -21 -161 -56 -55 -67 -72 -72 -107
-5 -37 -1 -48 32 -96 52 -76 47 -91 -55 -141 -105 -51 -135 -82 -126 -129 4
-21 19 -45 36 -60 17 -14 26 -28 20 -31 -19 -12 -10 -22 23 -28 162 -28 214
-36 295 -41 111 -7 159 -24 168 -61 11 -45 -24 -114 -96 -190 -133 -139 -126
-158 76 -201 177 -37 185 -44 277 -219 42 -80 77 -157 77 -171 0 -39 -53 -131
-123 -216 -93 -112 -144 -181 -151 -204 -4 -13 0 -29 12 -44 17 -21 21 -22 78
-10 32 7 106 30 164 52 116 45 213 58 272 39 24 -8 51 -31 82 -71 26 -32 70
-84 98 -115 68 -75 68 -106 3 -239 -54 -110 -62 -164 -27 -198 31 -31 71 -25
184 28 58 27 121 49 148 52 44 4 50 1 106 -45 96 -80 211 -164 339 -250 132
-89 144 -101 205 -224 81 -160 89 -164 196 -94 37 25 75 45 84 45 9 0 59 -18
111 -41 272 -118 658 -218 1004 -261 171 -20 685 -18 855 5 1149 154 2122 785
2711 1759 649 1072 702 2425 140 3547 -34 67 -89 167 -122 224 -82 137 -90
161 -98 307 -7 113 -10 129 -34 164 -31 45 -35 92 -12 175 24 91 13 94 -152
45 -55 -17 -100 -24 -137 -22 l-55 3 26 70 c67 184 66 177 54 217 -21 67 -58
73 -198 28 -143 -46 -158 -42 -154 42 3 68 -9 84 -79 104 -85 24 -110 55 -110
138 0 34 7 109 15 165 19 123 10 154 -42 159 -48 5 -85 -20 -160 -106 -84 -96
-125 -130 -171 -138 -63 -12 -86 38 -102 219 -11 122 -25 164 -65 195 -38 30
-81 29 -108 -4 -66 -80 -122 -133 -173 -164 l-57 -34 -23 29 c-40 50 -53 111
-63 290 -11 189 -20 229 -66 282 l-31 36 -21 -34z m61 -89 c18 -30 22 -59 27
-215 7 -181 12 -212 44 -276 41 -80 71 -88 135 -34 23 19 46 35 51 35 5 0 40
32 78 70 75 77 108 89 135 47 9 -13 22 -79 30 -152 26 -223 50 -268 136 -267
57 1 95 28 206 147 113 123 134 131 134 53 0 -29 -5 -91 -10 -138 -19 -162 11
-235 105 -259 l46 -12 -3 -76 c-2 -68 0 -77 21 -94 31 -25 106 -25 173 1 110
42 168 46 168 11 0 -9 -17 -63 -37 -121 -28 -82 -35 -113 -29 -141 6 -32 11
-38 42 -44 42 -7 74 -2 173 32 119 40 148 16 117 -95 -19 -69 -13 -98 24 -117
34 -18 37 -31 49 -201 10 -144 16 -163 90 -289 29 -48 69 -122 91 -166 l40
-79 -45 -207 c-25 -115 -49 -216 -53 -226 -6 -14 -19 12 -51 95 -24 62 -90
205 -147 316 -57 112 -104 214 -104 225 0 12 9 68 20 124 20 104 18 154 -6
174 -13 11 -30 10 -121 -7 -28 -5 -33 -3 -39 19 -4 18 3 45 20 83 40 87 43
125 13 160 -24 28 -29 29 -137 34 -125 6 -133 10 -144 80 -3 22 -16 50 -28 62
-19 19 -28 20 -117 15 -67 -4 -102 -2 -117 6 -32 18 -77 59 -97 87 -21 31 -23
116 -3 208 61 279 82 461 56 477 -10 6 -59 -38 -110 -100 -14 -16 -42 -43 -63
-58 -20 -15 -62 -50 -92 -76 -37 -32 -73 -53 -113 -65 -101 -31 -114 -19 -131
134 -21 179 -56 250 -121 250 -39 0 -67 -29 -119 -124 -45 -82 -102 -142 -126
-132 -35 13 -46 72 -56 300 -10 247 -13 265 -41 296 -17 18 -28 21 -56 16 -48
-7 -74 -35 -112 -119 -65 -148 -114 -238 -133 -249 -17 -9 -27 -2 -74 51 -37
41 -62 61 -77 61 -16 0 -50 -28 -107 -86 l-84 -86 -70 6 c-38 3 -124 10 -190
17 -177 17 -573 6 -750 -21 -370 -56 -673 -150 -1000 -310 -212 -104 -359
-194 -539 -330 -592 -446 -1018 -1072 -1212 -1779 -38 -140 -77 -332 -94 -466
-13 -102 -43 -175 -100 -250 -48 -62 -59 -104 -36 -136 25 -36 20 -53 -31
-110 l-48 -52 -5 -101 c-5 -90 -9 -106 -37 -151 -53 -86 -53 -88 21 -160 36
-36 66 -72 66 -80 0 -38 -80 -87 -286 -176 -61 -26 -130 -59 -152 -73 -31 -19
-49 -24 -72 -20 -45 10 -46 23 -3 40 95 37 137 61 164 91 35 41 37 76 9 165
-30 96 -28 108 34 167 104 97 111 130 43 195 -24 22 -55 48 -68 57 l-23 16 27
42 c15 23 53 74 83 113 93 121 113 176 134 378 71 679 338 1323 776 1875 113
142 418 447 559 558 524 415 1117 675 1750 766 300 44 670 47 953 10 64 -8
103 -8 162 1 68 11 89 10 155 -5 77 -17 123 -14 158 10 10 7 53 58 96 114 55
71 89 127 116 191 41 101 55 109 89 50z m-45 -335 c20 -71 23 -103 25 -275 2
-162 5 -200 19 -227 43 -80 91 -61 204 80 64 80 92 107 110 107 26 0 52 -83
62 -196 5 -60 13 -118 17 -129 29 -81 100 -73 254 28 47 30 103 73 124 96 40
40 96 68 116 56 16 -10 12 -41 -19 -170 -16 -66 -37 -169 -46 -230 -23 -142
-15 -175 58 -245 71 -68 95 -77 166 -61 132 31 145 27 154 -42 11 -79 88 -117
202 -99 66 10 84 6 92 -25 4 -19 -4 -46 -30 -97 -51 -102 -55 -129 -22 -162
24 -24 32 -26 93 -22 l67 3 3 -38 c2 -21 -4 -69 -12 -107 -28 -120 -25 -130
73 -322 104 -200 148 -300 201 -454 l38 -110 -71 -322 c-39 -177 -72 -321 -73
-319 -1 1 -9 52 -18 112 -48 322 -162 670 -315 960 -48 91 -50 115 -20 251 11
53 18 107 15 121 -9 32 -47 45 -126 41 -36 -1 -71 1 -78 5 -20 13 -14 62 18
143 17 42 35 111 40 153 6 42 12 88 16 103 4 23 1 28 -19 33 -13 4 -49 2 -79
-4 -30 -5 -72 -7 -95 -4 -22 3 -78 0 -124 -7 -176 -25 -169 -26 -220 14 -49
39 -63 64 -99 186 -36 123 -36 138 4 254 54 156 48 216 -22 216 -51 -1 -107
-28 -208 -101 -107 -78 -113 -75 -125 68 -16 175 -39 243 -83 243 -28 0 -58
-35 -129 -152 -50 -81 -98 -138 -116 -138 -6 0 -20 15 -31 33 -19 29 -20 48
-19 207 2 175 -5 230 -37 293 -33 63 -75 21 -168 -167 -97 -196 -138 -232
-234 -207 -35 10 -50 8 -111 -13 -69 -24 -73 -24 -163 -11 -590 88 -1209 -9
-1753 -275 -650 -318 -1178 -881 -1448 -1546 -116 -284 -185 -564 -217 -883
-7 -72 -18 -121 -35 -158 -31 -68 -121 -159 -200 -200 -33 -17 -71 -43 -84
-57 -21 -22 -22 -28 -11 -61 8 -24 10 -59 6 -99 -13 -114 -13 -116 35 -157 48
-41 48 -29 -2 -119 -19 -36 -25 -86 -11 -107 13 -20 173 -122 201 -127 178
-34 175 -31 132 -126 -46 -100 -49 -129 -16 -168 15 -17 66 -57 113 -88 132
-86 167 -118 206 -188 66 -119 46 -187 -109 -357 -98 -108 -151 -189 -141
-215 9 -24 110 -9 231 33 144 51 224 72 274 72 48 1 68 -16 154 -124 35 -44
39 -54 34 -93 -2 -23 -28 -91 -57 -151 -33 -68 -53 -123 -54 -147 -1 -37 1
-39 33 -42 22 -2 67 10 135 39 82 34 116 43 181 47 79 4 81 4 130 -32 28 -19
95 -67 151 -105 108 -75 139 -105 204 -200 55 -81 103 -127 157 -147 l46 -18
62 34 63 34 169 -57 c268 -90 464 -133 727 -158 177 -16 521 -7 696 20 426 65
838 221 1189 448 82 54 84 54 105 35 128 -112 128 -112 166 -112 32 0 44 7 90
56 l53 56 21 -21 21 -21 -30 -25 c-74 -60 -265 -193 -363 -252 -332 -200 -682
-335 -1067 -412 -373 -73 -826 -76 -1215 -5 -108 20 -342 79 -433 110 -82 28
-117 29 -224 9 -113 -22 -174 -20 -202 6 -20 19 -22 27 -16 84 9 76 4 82 -110
144 -113 62 -288 177 -411 271 -58 44 -117 83 -130 86 -50 13 -130 -3 -227
-45 -55 -23 -113 -45 -129 -48 -31 -6 -31 -6 -26 28 4 19 25 79 49 134 30 71
44 118 47 160 l4 60 -86 96 c-77 88 -90 98 -136 109 -68 16 -113 8 -282 -51
-79 -27 -160 -49 -181 -49 l-37 0 19 37 c19 37 47 72 185 229 71 82 96 125 96
169 0 40 -106 231 -148 265 -42 35 -69 44 -172 61 -68 10 -78 15 -112 52 -51
54 -55 73 -27 111 69 92 109 160 109 186 0 34 -34 65 -93 82 -40 12 -165 -2
-412 -46 -38 -7 -87 -9 -107 -6 -43 8 -114 58 -101 71 5 5 71 36 148 70 196
85 285 149 285 201 0 26 -24 68 -56 98 -52 48 -49 81 10 154 48 58 53 85 25
157 -21 57 -21 62 -5 71 71 40 123 126 113 190 -4 26 7 55 50 138 53 103 55
109 79 275 107 728 420 1354 933 1865 258 256 525 447 856 610 340 168 612
253 990 310 199 30 575 38 781 16 83 -9 170 -16 193 -16 45 0 50 4 163 134 46
52 77 46 120 -24 17 -28 38 -50 47 -50 8 0 41 27 72 59 44 45 72 87 115 177
32 66 64 129 72 142 26 40 45 23 71 -63z m-74 -332 c3 -21 5 -114 3 -208 -3
-155 -1 -174 18 -215 48 -103 91 -104 162 -2 68 96 115 142 145 142 37 0 47
-26 47 -119 0 -44 4 -91 10 -105 25 -66 91 -86 141 -43 164 139 178 147 214
107 21 -23 18 -87 -10 -210 -13 -61 -14 -83 -5 -120 7 -25 18 -84 25 -132 16
-107 36 -149 84 -182 42 -30 71 -31 156 -10 51 12 108 19 345 37 24 2 25 0 24
-49 -1 -33 -19 -102 -48 -186 -54 -157 -59 -213 -21 -228 14 -5 61 -7 104 -3
l80 6 7 -27 c4 -17 -1 -57 -15 -106 -34 -125 -30 -169 29 -282 183 -351 290
-733 320 -1133 l10 -140 -143 -640 -143 -641 -143 -206 -144 -207 -25 19 c-31
25 -93 26 -120 3 -31 -28 -578 -666 -590 -690 -18 -33 -14 -67 9 -98 13 -15
18 -30 13 -33 -193 -133 -454 -263 -694 -346 -440 -154 -968 -196 -1440 -115
-201 34 -442 103 -606 172 -72 31 -104 26 -165 -23 -21 -16 -44 -30 -52 -30
-19 0 -98 89 -180 200 -55 74 -81 98 -202 185 l-139 100 -81 -1 c-70 0 -92 -5
-180 -41 -55 -23 -111 -43 -125 -44 -24 -4 -25 -1 -24 41 0 35 11 64 46 125
60 104 73 153 54 197 -23 54 -133 176 -170 188 -42 14 -99 2 -259 -55 -67 -24
-148 -46 -180 -50 -52 -7 -57 -6 -57 12 0 26 46 89 136 187 142 155 161 234
88 361 -36 63 -47 74 -113 112 -55 31 -83 56 -115 100 -24 32 -55 69 -70 82
-32 30 -33 57 -4 116 29 60 19 92 -41 121 l-44 21 114 22 c121 23 185 26 208
12 12 -8 12 -16 1 -55 -17 -63 -8 -89 45 -123 36 -22 45 -32 40 -48 -28 -96
-16 -114 97 -150 96 -30 118 -41 140 -69 39 -47 9 -149 -70 -245 -147 -177
-192 -246 -192 -291 0 -52 96 -34 274 52 102 49 142 63 189 66 l59 5 70 -73
70 -73 -4 -61 c-3 -45 -16 -87 -50 -161 -51 -110 -63 -153 -49 -174 14 -21
116 2 225 52 192 87 274 46 361 -179 21 -53 50 -110 65 -127 32 -36 37 -34
124 28 56 41 97 45 155 15 205 -104 566 -203 845 -231 150 -15 515 -6 651 15
149 24 374 82 514 133 253 94 540 256 747 423 106 86 314 295 398 400 291 365
479 800 552 1275 23 150 26 550 6 695 -41 286 -111 527 -230 785 l-55 120 7
116 c8 146 5 151 -114 180 -47 11 -91 28 -97 37 -22 27 -15 76 22 155 39 85
43 129 18 195 -13 36 -14 50 -5 75 6 16 9 34 6 38 -16 27 -154 -5 -263 -60
-20 -11 -53 -22 -72 -26 -32 -6 -39 -3 -62 25 -54 64 -59 160 -16 321 19 70
23 112 23 253 1 150 -1 170 -16 180 -37 23 -70 -12 -190 -202 -46 -73 -92
-101 -136 -83 -47 20 -56 48 -56 186 -1 68 -4 126 -8 130 -13 14 -49 -18 -106
-93 -85 -110 -94 -118 -132 -102 -59 24 -65 52 -62 265 3 207 -7 278 -40 296
-32 17 -50 -11 -103 -156 -53 -146 -94 -219 -139 -246 -42 -26 -53 -24 -87 12
-41 44 -68 34 -155 -58 l-72 -76 -73 6 c-41 3 -132 11 -204 18 -435 39 -929
-58 -1350 -265 -430 -212 -780 -522 -1047 -930 -160 -245 -272 -512 -353 -842
-27 -107 -58 -211 -73 -239 -15 -27 -72 -97 -128 -155 -111 -115 -124 -134
-124 -179 0 -51 29 -71 105 -71 79 0 89 -13 52 -69 -27 -41 -91 -87 -205 -146
-40 -21 -91 -54 -114 -75 l-41 -36 11 -44 c7 -29 7 -50 1 -62 -7 -14 -6 -18 6
-18 27 0 16 -16 -20 -29 -19 -7 -58 -28 -87 -47 -48 -32 -78 -38 -78 -15 0 6
18 25 40 43 51 40 49 62 -7 103 -23 16 -42 37 -42 45 -1 8 8 40 20 70 18 47
19 59 9 97 l-12 42 129 128 c172 170 186 197 213 409 25 193 49 316 95 474
145 502 451 993 843 1347 462 418 1012 671 1627 749 164 21 488 22 645 3 188
-23 224 -20 297 25 50 30 69 37 90 31 16 -4 49 -9 75 -12 43 -4 49 -2 90 35
28 26 63 79 102 152 55 105 108 180 126 180 5 0 11 -17 15 -37z m-79 -446 c1
-199 15 -273 57 -323 19 -22 29 -26 50 -20 37 9 89 57 127 116 32 51 62 64 74
34 3 -9 6 -59 6 -112 0 -113 11 -140 63 -165 31 -16 43 -17 71 -7 43 14 101
76 155 166 23 39 52 81 65 93 l24 22 11 -32 c14 -40 14 -120 1 -190 -64 -329
-64 -417 -4 -489 42 -49 55 -53 139 -35 231 47 308 -22 218 -197 -68 -133 -46
-193 83 -229 98 -27 105 -38 102 -163 -3 -110 -11 -83 90 -311 184 -419 246
-944 166 -1420 -115 -687 -517 -1304 -1102 -1695 -312 -209 -666 -347 -1037
-406 -139 -21 -482 -30 -631 -15 -250 26 -487 85 -714 178 -169 69 -215 73
-315 24 -44 -22 -70 -30 -77 -23 -5 5 -27 58 -48 117 -42 113 -69 158 -124
200 -66 50 -126 44 -288 -31 -53 -25 -113 -48 -133 -51 l-37 -6 7 33 c4 19 28
78 52 133 33 71 47 118 50 161 5 59 4 63 -34 111 -64 81 -100 112 -135 117
-52 8 -144 -19 -273 -79 -134 -63 -215 -80 -215 -47 0 26 52 101 144 207 85
98 114 141 139 205 16 40 16 46 1 77 -19 41 -61 69 -129 86 -58 14 -120 43
-132 61 -4 7 -10 44 -14 82 -5 58 -11 74 -32 92 -14 12 -32 24 -39 26 -11 4
-11 11 1 39 26 65 25 86 -3 104 -37 25 -131 16 -276 -26 -63 -18 -140 -33
-170 -33 -48 -1 -62 4 -114 39 -33 22 -61 45 -64 52 -2 6 11 19 27 28 17 8 31
21 31 28 0 14 95 77 160 106 25 11 44 24 43 28 -1 4 -19 10 -40 13 -34 4 -38
8 -41 37 -4 43 51 95 193 181 61 37 138 94 173 128 53 51 63 66 60 90 -4 36
-45 53 -130 53 -51 1 -58 3 -63 24 -11 40 14 78 113 176 54 53 112 118 130
146 35 53 35 52 88 270 87 359 254 696 491 990 97 120 296 316 413 407 547
423 1191 603 1887 527 142 -16 158 -11 246 71 41 39 82 70 91 70 8 0 22 -13
31 -30 20 -38 42 -38 89 -1 73 58 113 123 191 304 27 63 41 85 49 77 6 -6 11
-78 12 -193z m2474 -1922 c290 -1109 39 -2280 -678 -3173 -537 -669 -1309
-1134 -2142 -1291 -252 -47 -352 -55 -675 -55 -339 0 -445 9 -715 64 -235 47
-554 146 -681 211 -84 43 -169 34 -243 -24 -29 -23 -43 -28 -55 -20 -8 5 -42
59 -74 119 -71 132 -94 157 -222 241 -106 70 -177 122 -289 212 l-69 56 -71 0
c-62 0 -84 -6 -171 -44 -55 -24 -117 -46 -137 -49 -35 -4 -38 -2 -38 19 0 13
25 73 55 135 59 120 73 173 56 216 -9 23 -134 179 -197 244 -29 31 -110 46
-176 34 -29 -6 -106 -31 -171 -55 -139 -53 -207 -67 -207 -41 0 25 63 119 157
233 83 101 122 168 123 209 0 28 -135 291 -167 326 -36 38 -106 65 -245 93
-67 14 -123 27 -126 30 -9 9 40 73 87 113 54 46 111 145 111 194 0 38 -31 66
-82 75 -42 7 -42 7 37 19 163 25 275 12 275 -33 0 -20 -40 -74 -97 -131 -54
-55 -58 -94 -13 -146 39 -44 102 -73 208 -96 106 -23 120 -37 197 -186 l57
-112 -24 -54 c-16 -34 -60 -92 -122 -158 -101 -107 -156 -188 -156 -227 0 -40
78 -31 254 28 119 41 165 52 220 53 l69 1 64 -70 c103 -112 116 -135 111 -198
-3 -35 -20 -86 -52 -154 -55 -119 -67 -169 -41 -179 22 -9 121 19 215 60 145
64 166 61 311 -52 118 -90 298 -209 411 -271 42 -23 79 -49 82 -58 4 -9 4 -35
1 -57 -8 -57 19 -98 80 -122 43 -16 58 -17 154 -6 153 17 177 16 287 -18 365
-113 643 -155 1024 -154 539 0 994 106 1475 344 208 103 346 187 522 320 69
52 137 101 152 109 14 8 29 19 33 25 3 6 80 85 170 176 90 91 203 215 251 275
607 764 849 1727 677 2692 l-20 113 55 247 c30 137 58 259 61 273 5 20 13 7
41 -75 19 -55 52 -167 73 -250z m-250 -500 c18 -134 25 -563 11 -713 -60 -638
-305 -1243 -705 -1744 -100 -124 -332 -367 -370 -388 -25 -13 -29 -12 -51 11
l-24 24 196 225 c234 270 253 295 253 331 0 15 -11 41 -25 57 -14 17 -25 33
-25 37 0 4 60 93 134 198 73 106 144 208 158 228 20 30 61 202 224 937 109
496 202 898 205 894 4 -4 12 -47 19 -97z"/>
<path d="M9553 8296 c-16 -13 -34 -35 -40 -48 -6 -12 -34 -72 -63 -131 -61
-130 -86 -151 -166 -142 -51 6 -53 5 -103 -39 -91 -81 -90 -81 -299 -66 -285
20 -509 1 -767 -65 -382 -98 -722 -288 -1009 -565 -325 -314 -530 -677 -641
-1133 -19 -77 -41 -148 -51 -158 -10 -11 -72 -47 -138 -80 -127 -63 -159 -86
-182 -132 -26 -50 -2 -70 121 -101 53 -14 85 -35 85 -57 0 -18 -59 -75 -126
-119 -40 -27 -82 -63 -93 -79 -12 -16 -41 -39 -64 -50 -24 -12 -55 -33 -68
-47 -13 -14 -50 -44 -81 -66 -88 -62 -126 -120 -95 -146 18 -15 114 -40 185
-47 37 -3 88 -18 125 -36 48 -22 76 -29 124 -29 81 0 107 -13 129 -64 10 -22
28 -55 41 -73 27 -37 29 -64 8 -123 -34 -96 -14 -116 129 -129 125 -12 151
-27 143 -83 -7 -52 -57 -126 -159 -234 -95 -100 -158 -180 -158 -200 0 -43
107 -25 274 46 184 78 267 86 330 30 30 -28 31 -31 30 -112 0 -72 -6 -96 -38
-178 -59 -148 -63 -167 -44 -187 16 -15 20 -15 62 1 25 10 80 40 121 67 159
105 175 105 335 -3 134 -90 169 -127 177 -187 3 -22 13 -47 22 -55 29 -27 132
-46 296 -57 99 -6 200 -19 265 -34 327 -75 714 -74 1035 2 326 77 644 232 904
440 537 432 851 1088 851 1782 0 300 -72 642 -190 905 -37 83 -38 127 -4 224
30 87 27 127 -12 163 -23 21 -34 24 -101 22 -102 -3 -133 13 -133 67 0 22 11
69 25 106 34 89 33 147 -1 181 -25 25 -28 26 -116 19 -140 -10 -130 -34 -123
292 5 214 3 288 -7 327 -7 28 -17 50 -23 49 -5 0 -35 -52 -66 -114 -58 -118
-85 -150 -124 -150 -13 0 -47 -11 -77 -25 -62 -29 -110 -32 -134 -8 -14 15
-16 29 -9 102 4 48 8 104 8 126 l2 40 -40 -2 c-74 -3 -100 12 -128 75 -14 31
-33 100 -42 152 -30 163 -50 188 -112 136z m56 -34 c5 -10 17 -61 26 -113 30
-176 70 -261 145 -305 25 -15 28 -23 33 -96 6 -90 22 -123 72 -144 26 -10 46
-11 86 -4 28 6 69 10 91 10 51 0 80 29 125 128 20 42 45 91 57 107 l21 30 7
-45 c13 -86 8 -230 -13 -380 -19 -139 -20 -152 -5 -175 20 -31 74 -41 138 -26
64 14 111 14 126 -1 20 -20 13 -89 -19 -168 -16 -41 -32 -93 -35 -115 -5 -34
-2 -43 21 -65 24 -22 36 -25 123 -28 53 -2 103 -9 110 -14 20 -17 14 -71 -15
-134 -43 -95 -42 -134 7 -249 357 -838 171 -1797 -473 -2436 -285 -284 -656
-491 -1042 -582 -313 -74 -684 -76 -999 -6 -71 16 -125 20 -244 19 -247 -1
-273 13 -306 160 -3 14 -19 33 -38 44 -18 11 -86 54 -151 97 -65 44 -129 82
-142 85 -53 13 -113 -7 -221 -72 -105 -63 -144 -77 -144 -50 0 8 15 54 34 103
66 173 71 261 21 334 -29 41 -47 49 -116 49 -57 0 -126 -20 -255 -75 -79 -34
-185 -65 -221 -65 -14 0 42 74 136 180 126 143 174 220 169 278 -3 31 -9 40
-38 54 -19 10 -78 22 -130 28 -52 6 -99 15 -104 20 -5 5 0 30 14 61 31 73 24
124 -24 164 -27 22 -36 38 -36 61 0 67 -56 90 -182 73 -53 -8 -82 -8 -95 0
-14 8 -4 10 45 11 34 0 114 11 178 25 64 14 143 25 176 25 51 0 66 -4 97 -29
20 -15 50 -36 68 -45 46 -23 63 -53 63 -112 0 -62 15 -110 38 -119 9 -4 46
-13 82 -19 60 -10 65 -13 68 -38 5 -45 -43 -118 -160 -242 -111 -119 -172
-201 -161 -219 9 -14 113 1 190 28 37 13 111 41 163 63 116 49 208 69 239 53
36 -20 29 -92 -25 -227 -51 -131 -66 -210 -41 -220 21 -8 69 9 199 68 59 27
129 51 157 55 84 10 146 -38 334 -257 49 -58 96 -106 103 -108 7 -2 42 12 76
31 86 47 121 52 215 28 270 -69 631 -71 898 -5 254 63 492 174 695 325 98 72
267 234 345 329 355 436 500 1023 389 1580 -20 99 -68 255 -110 358 -19 45
-34 96 -34 113 0 17 16 67 35 110 19 44 35 88 35 98 0 30 -34 51 -96 61 -126
21 -141 69 -65 201 50 87 71 144 64 167 -7 18 -52 15 -118 -8 -90 -31 -141
-25 -165 20 -8 16 -2 45 30 136 64 186 57 259 -25 257 -44 -1 -84 -31 -166
-124 -63 -70 -130 -119 -163 -119 -28 0 -33 39 -23 176 9 120 8 134 -9 170
-15 31 -29 42 -69 57 -64 24 -107 57 -145 112 -51 74 -71 59 -119 -91 -63
-196 -113 -224 -170 -92 -32 75 -71 73 -160 -6 -58 -52 -100 -76 -133 -77 -13
-1 -93 2 -178 6 -520 24 -1011 -157 -1394 -516 -275 -257 -475 -612 -556 -984
-11 -55 -28 -110 -35 -122 -33 -51 -125 -84 -296 -108 -19 -3 -44 -11 -53 -18
-17 -13 -17 -15 -2 -45 19 -36 21 -84 4 -115 -6 -12 -36 -49 -66 -82 -30 -32
-74 -89 -97 -125 -54 -84 -128 -151 -261 -236 -96 -61 -105 -69 -88 -81 16
-12 14 -13 -19 -13 -54 0 -107 24 -107 49 0 21 13 32 94 82 26 16 50 38 53 48
3 10 23 27 46 37 23 11 67 42 98 70 30 28 83 70 117 92 110 76 155 138 131
184 -9 16 -48 33 -138 60 -25 7 -46 18 -48 23 -1 6 6 25 17 43 21 34 55 52
215 118 83 34 110 58 123 110 70 302 108 417 204 609 174 350 427 633 762 856
410 272 909 401 1386 359 80 -8 157 -13 172 -12 38 2 82 26 151 84 57 47 62
49 106 43 84 -11 131 37 196 201 33 84 85 164 105 164 5 0 14 -8 19 -18z m-9
-623 c53 -43 83 -76 105 -115 l29 -56 -17 -83 c-9 -45 -17 -94 -17 -108 0 -65
45 -102 96 -78 41 18 99 69 132 114 56 78 100 117 133 117 17 0 40 -5 51 -11
18 -10 20 -17 14 -62 -4 -28 -23 -88 -42 -134 -40 -98 -43 -132 -11 -160 51
-47 118 -56 197 -28 23 8 47 15 51 15 15 0 -2 -51 -48 -138 -72 -138 -54 -191
77 -229 81 -24 83 -34 35 -133 -45 -95 -45 -132 1 -240 107 -254 159 -577 135
-849 -56 -629 -403 -1169 -948 -1472 -418 -232 -941 -291 -1397 -158 -37 11
-79 18 -91 15 -13 -3 -46 -24 -74 -46 -28 -22 -57 -40 -65 -40 -8 0 -55 51
-105 114 -110 139 -201 223 -248 232 -64 12 -131 -4 -251 -60 -64 -30 -128
-57 -141 -61 -23 -7 -24 -6 -19 37 3 24 24 86 48 138 57 125 64 192 25 238
-23 28 -33 32 -75 32 -54 0 -83 -9 -265 -85 -144 -59 -212 -81 -221 -72 -13
13 49 97 159 215 108 114 157 185 157 225 0 30 -37 55 -97 67 -102 19 -103 21
-103 92 0 70 -20 115 -65 144 -14 9 -41 32 -59 50 -33 33 -37 34 -110 34 -46
0 -130 -12 -216 -30 -77 -16 -171 -30 -208 -30 -98 0 -173 25 -156 51 2 4 46
31 97 61 135 77 217 162 217 225 0 35 36 75 105 116 60 36 72 49 85 84 13 38
12 48 -3 95 -9 28 -15 53 -14 54 1 1 52 14 113 27 122 28 174 50 218 93 39 40
51 67 75 169 35 149 80 269 152 413 177 352 452 627 809 811 161 82 299 132
469 169 117 24 145 27 381 28 288 2 270 -2 390 86 40 29 76 48 84 45 9 -4 29
-33 46 -66 16 -33 39 -65 49 -71 47 -24 101 29 147 143 30 76 67 127 92 127
10 0 51 -27 92 -61z"/>
<path d="M9473 7559 c-21 -8 -32 -27 -141 -259 -55 -118 -90 -160 -133 -160
-33 0 -48 22 -74 113 -17 59 -36 87 -60 87 -7 0 -58 -21 -112 -46 -152 -71
-204 -85 -344 -95 -407 -29 -747 -175 -1021 -438 -224 -214 -357 -435 -444
-735 -19 -66 -40 -126 -46 -134 -17 -20 -93 -56 -173 -82 -142 -46 -179 -81
-184 -177 -2 -33 -69 -85 -175 -138 -162 -79 -217 -146 -171 -211 23 -34 144
-101 212 -118 34 -9 90 -19 125 -22 35 -3 100 -17 146 -31 74 -22 90 -32 140
-83 31 -31 80 -70 107 -85 71 -40 85 -54 85 -86 0 -34 -21 -60 -170 -214 -86
-89 -121 -133 -135 -168 -24 -64 -14 -74 58 -59 30 6 114 34 187 62 143 55
220 71 245 50 25 -21 19 -109 -14 -192 -38 -98 -43 -125 -30 -149 18 -34 81
-20 208 44 130 67 173 76 218 48 42 -26 58 -59 77 -160 15 -83 42 -131 72
-131 7 0 52 19 101 43 106 51 140 53 298 14 637 -155 1322 116 1687 668 173
261 254 514 265 828 9 250 -26 452 -116 672 -45 110 -50 158 -30 300 9 66 8
84 -7 125 -15 43 -16 55 -4 104 14 58 5 86 -26 86 -17 0 -17 11 -2 61 15 51 0
79 -63 120 -27 17 -62 46 -78 64 -55 63 -89 69 -177 30 -33 -15 -65 -23 -77
-19 -29 9 -57 80 -57 149 0 78 -21 158 -64 243 -36 72 -65 95 -103 81z m79
-110 c12 -16 23 -55 29 -105 28 -220 50 -287 103 -313 25 -11 35 -11 83 8 71
27 103 26 161 -3 103 -52 136 -114 109 -205 -14 -49 -14 -52 5 -65 17 -12 19
-21 13 -54 -4 -26 -2 -49 6 -63 10 -19 8 -49 -6 -154 -21 -149 -23 -135 54
-316 84 -198 117 -391 108 -634 -11 -305 -89 -547 -258 -800 -367 -550 -1043
-799 -1692 -624 -95 26 -124 22 -235 -31 -46 -22 -90 -40 -98 -40 -19 0 -31
26 -39 85 -13 99 -33 151 -70 184 -59 51 -114 42 -270 -48 -96 -55 -115 -60
-139 -35 -23 22 -20 63 9 141 31 81 34 143 10 179 -16 25 -21 26 -74 21 -32
-3 -122 -29 -210 -61 -138 -50 -201 -66 -201 -51 0 28 62 108 164 214 145 150
156 164 156 213 0 54 -52 108 -144 152 -40 19 -76 41 -79 50 -11 29 -82 54
-217 75 -230 37 -295 60 -364 124 -68 65 -41 95 146 167 81 31 114 50 137 76
31 35 34 46 31 121 -2 48 7 55 125 93 89 29 177 72 225 110 33 26 41 41 60
112 177 658 730 1122 1388 1164 125 8 190 24 336 85 65 28 125 49 133 47 9 -2
25 -34 39 -79 31 -98 49 -114 121 -110 27 1 89 54 108 91 8 15 31 72 51 126
20 55 48 114 61 132 43 57 92 65 125 21z"/>
<path d="M8585 5821 c-77 -35 -145 -137 -145 -219 0 -41 33 -124 62 -158 49
-56 101 -78 183 -79 59 0 77 4 118 28 60 36 103 93 118 161 22 102 -39 223
-136 267 -53 24 -147 24 -200 0z"/>
<path d="M12952 9603 c-47 -23 -76 -67 -68 -105 4 -22 -1 -45 -16 -77 -25 -50
-28 -98 -19 -311 3 -58 1 -148 -3 -200 -8 -95 -8 -95 23 -140 16 -25 45 -55
63 -67 l33 -22 70 20 c38 10 93 19 121 19 45 0 52 -3 58 -22 11 -44 6 -159 -9
-187 -21 -41 -72 -81 -103 -81 -93 0 -178 -67 -206 -159 -21 -71 -20 -159 2
-246 18 -70 18 -70 -5 -136 -12 -36 -30 -108 -39 -159 -14 -84 -14 -113 -3
-243 10 -120 10 -175 0 -289 -8 -96 -9 -143 -2 -147 7 -5 7 -28 1 -71 -5 -36
-10 -168 -10 -294 l0 -230 26 -38 c15 -21 32 -38 38 -38 6 0 44 -5 85 -10 158
-21 219 -85 197 -207 l-8 -43 -92 0 c-126 0 -169 -21 -211 -105 -27 -53 -30
-69 -28 -140 1 -44 2 -95 2 -112 0 -18 1 -50 1 -70 1 -21 3 -546 5 -1168 3
-621 7 -1140 10 -1151 3 -14 21 -28 47 -40 56 -23 332 -31 488 -15 83 9 115 9
132 0 16 -9 39 -8 94 1 67 12 75 11 106 -7 29 -17 33 -25 36 -65 5 -73 -14
-81 -213 -88 -158 -5 -162 -6 -198 -33 -42 -32 -45 -50 -21 -121 14 -41 15
-66 5 -204 -14 -199 -14 -286 0 -389 9 -63 9 -92 0 -130 -7 -26 -15 -107 -18
-178 -7 -150 -9 -146 82 -170 48 -12 128 -15 425 -15 201 0 382 4 402 9 23 5
40 5 46 -1 7 -7 21 -7 43 1 18 6 99 11 189 11 184 0 182 -1 205 106 21 101 19
126 -22 208 l-37 74 32 36 c39 45 46 70 33 126 -6 29 -6 59 0 89 9 38 6 74
-19 212 -30 161 -30 167 -16 250 17 102 42 185 60 200 9 7 40 7 108 0 52 -6
120 -11 150 -11 54 0 54 0 70 -40 33 -82 87 -420 83 -521 -1 -50 2 -72 14 -85
11 -13 20 -56 28 -129 25 -235 69 -445 105 -498 23 -34 31 -35 156 -28 14 1
99 -1 190 -5 91 -3 222 -1 292 4 83 6 158 6 215 0 118 -13 518 7 550 28 55 35
82 134 93 349 10 174 19 223 80 410 36 110 40 129 31 163 -15 54 18 238 57
321 l15 33 111 -4 c61 -3 119 -9 129 -13 15 -6 17 -28 18 -234 1 -124 4 -282
7 -351 8 -193 8 -280 -1 -475 l-8 -180 48 -29 c45 -27 52 -28 118 -21 38 5 90
7 115 5 41 -4 146 -5 210 -2 14 1 174 -1 355 -4 246 -5 352 -3 415 7 47 7 109
13 139 14 51 0 56 2 74 33 19 33 19 38 3 255 -9 122 -18 245 -21 272 -3 28 0
90 7 138 7 60 8 95 1 110 -6 13 -8 55 -5 95 l5 72 51 0 c28 0 67 -3 87 -6 l36
-6 9 -237 c11 -293 12 -697 1 -857 l-8 -121 53 -34 53 -34 365 0 c201 0 399 2
440 4 41 2 104 0 140 -4 46 -5 109 -1 215 14 83 12 177 21 208 21 64 0 97 12
97 36 0 8 -8 31 -19 52 -16 32 -17 46 -9 107 6 39 7 111 3 160 -3 50 -5 108
-3 130 4 52 4 411 0 540 -2 55 -1 132 3 170 5 60 3 73 -13 94 l-20 25 -75 -19
-75 -19 -89 27 c-108 33 -158 43 -245 52 -71 8 -91 27 -45 44 25 10 89 75 106
108 6 12 11 62 11 112 0 81 2 93 24 118 23 27 28 28 133 31 147 4 153 5 153
44 0 17 -10 66 -21 107 -19 67 -21 92 -16 216 8 185 34 277 124 432 36 61 37
62 63 48 32 -16 80 -104 108 -196 12 -37 36 -98 55 -135 19 -38 48 -107 64
-154 34 -98 88 -308 80 -316 -2 -3 -40 -6 -83 -8 -58 -2 -91 -8 -121 -24 -55
-29 -63 -57 -30 -114 31 -53 62 -144 77 -220 14 -72 53 -109 145 -137 65 -20
225 -41 315 -41 43 0 51 -4 85 -42 57 -62 123 -213 225 -513 148 -436 236
-646 302 -721 30 -34 34 -36 72 -29 50 10 40 10 526 0 532 -10 881 12 927 58
11 11 8 31 -22 117 -52 149 -124 326 -193 475 -114 247 -232 546 -232 589 0
54 -157 100 -447 131 -49 5 -68 13 -89 33 -35 36 -76 119 -108 220 -26 84 -32
128 -18 148 4 6 48 18 97 26 122 21 165 40 165 73 0 14 -25 75 -55 136 -95
188 -180 387 -243 564 -79 223 -127 346 -168 425 -18 36 -67 162 -108 280
-134 388 -243 662 -338 850 l-57 115 70 160 c84 188 230 481 259 517 11 15 43
73 72 129 55 112 133 202 183 215 15 4 50 2 77 -5 92 -21 114 -16 149 32 17
23 58 98 90 167 86 180 107 219 150 277 27 36 39 62 39 85 l0 33 -73 12 c-87
14 -153 39 -161 60 -10 26 27 77 74 101 36 18 61 22 135 22 90 0 93 1 146 38
30 21 69 59 87 86 40 60 42 103 7 136 -22 21 -31 22 -98 17 -75 -5 -94 0 -134
36 -30 26 -29 48 2 97 67 106 315 600 315 627 0 52 -17 63 -82 51 -52 -9 -67
-7 -161 21 l-104 31 -542 0 c-343 0 -549 -4 -561 -10 -28 -15 -120 -159 -192
-300 -105 -206 -208 -438 -208 -470 0 -19 11 -42 32 -66 32 -36 33 -36 97 -32
53 3 68 1 83 -14 23 -23 23 -33 -6 -93 -35 -75 -57 -90 -157 -103 -110 -15
-201 -46 -239 -82 -24 -22 -30 -36 -30 -70 0 -63 12 -77 77 -90 64 -14 100
-27 125 -48 15 -13 15 -18 -7 -80 -65 -190 -145 -367 -191 -421 -36 -43 -61
-38 -95 19 -26 44 -27 47 -17 133 7 59 7 104 1 138 -8 37 -7 62 2 92 7 23 16
65 20 93 6 51 6 52 -28 73 -29 18 -50 21 -136 21 -95 0 -104 2 -127 25 -26 27
-26 57 3 103 25 40 57 48 98 23 26 -15 53 -21 96 -21 l60 0 21 47 c18 41 20
55 11 113 -6 41 -6 78 -1 99 14 50 -2 60 -117 71 -167 16 -255 54 -240 104 12
40 27 699 18 821 -7 99 -5 140 11 236 l19 117 -36 35 -35 35 -348 12 c-192 6
-509 10 -704 8 l-355 -3 -57 -27 c-65 -30 -69 -42 -39 -101 16 -31 17 -44 9
-83 -7 -31 -7 -64 0 -97 7 -34 7 -86 0 -157 -6 -58 -7 -148 -3 -200 3 -52 6
-104 5 -115 0 -11 -3 -129 -6 -262 l-6 -241 42 -46 c23 -25 58 -55 77 -67 32
-20 39 -21 106 -10 65 11 73 10 84 -5 14 -19 18 -151 5 -170 -18 -28 -71 -44
-129 -38 -47 4 -64 2 -90 -15 -32 -20 -93 -95 -93 -114 0 -5 13 -26 30 -46 28
-36 33 -38 117 -50 90 -13 159 -36 179 -62 9 -10 9 -55 3 -164 -6 -82 -8 -186
-7 -229 l3 -80 -35 -7 c-19 -4 -66 -12 -105 -19 -84 -13 -150 -43 -172 -77
-15 -22 -15 -35 -4 -117 10 -73 11 -134 1 -292 -8 -147 -8 -337 -1 -734 14
-679 14 -1489 0 -1645 -7 -88 -7 -137 2 -183 9 -49 9 -81 -1 -138 -9 -57 -9
-78 0 -89 13 -16 7 -56 -17 -117 -12 -31 -20 -38 -42 -38 -45 0 -174 -40 -215
-67 l-39 -25 7 -68 6 -68 -38 10 c-20 5 -52 19 -70 30 -62 38 -62 38 -62 453
0 429 5 404 -91 424 -107 23 -258 34 -299 22 -59 -17 -114 -14 -144 10 -21 17
-26 29 -26 64 0 53 17 68 100 84 78 16 246 28 267 20 38 -15 109 -9 153 14
l45 22 -3 580 c-1 351 -7 614 -14 667 -9 74 -8 93 5 126 12 30 15 61 10 128
-5 81 -3 91 16 116 24 30 75 48 136 48 101 0 175 79 175 187 l0 52 -42 11
c-170 44 -248 72 -273 100 -15 17 -16 83 -13 784 l3 766 -30 10 c-80 25 -191
33 -600 39 -371 7 -448 10 -492 25 -74 23 -99 55 -75 93 21 32 68 36 582 44
283 4 531 10 550 14 33 6 37 11 63 81 30 79 86 150 111 141 8 -3 41 -9 73 -12
58 -7 59 -7 91 29 60 69 65 161 12 236 -17 24 -28 28 -96 33 -42 4 -95 16
-119 26 -80 35 -78 22 -74 443 l4 372 -45 13 c-25 8 -114 22 -198 33 -141 18
-214 20 -941 20 l-789 0 -16 -41 c-38 -94 -98 -391 -152 -750 -4 -28 1 -44 28
-85 l33 -49 77 3 c74 4 113 -6 130 -32 4 -6 8 -43 8 -82 l0 -72 -37 -18 c-21
-9 -51 -17 -68 -16 -61 2 -71 2 -113 -4 -50 -7 -72 -31 -102 -111 -45 -121
-84 -340 -120 -683 -11 -107 -36 -274 -54 -370 -19 -96 -57 -323 -86 -505 -28
-181 -52 -338 -55 -349 -5 -23 35 -60 100 -93 45 -23 55 -25 100 -16 35 7 57
7 73 0 23 -11 24 -15 18 -67 -16 -136 -46 -180 -120 -180 -25 0 -68 5 -96 11
-39 8 -51 15 -54 32 -28 144 -49 194 -99 231 -23 17 -48 22 -132 26 -58 3
-109 10 -115 16 -7 7 -32 97 -56 200 -23 104 -55 228 -68 276 -22 76 -24 94
-15 136 8 40 6 66 -12 147 -11 54 -25 110 -30 123 -5 14 -17 79 -25 146 -24
185 -63 385 -84 434 -13 29 -20 67 -20 107 0 34 -8 102 -17 151 -21 110 -21
144 0 215 l17 56 68 6 c130 13 192 47 192 109 0 155 -100 247 -239 219 -69
-14 -73 -11 -131 124 -65 153 -110 222 -194 298 -96 86 -176 204 -176 257 0
33 4 39 30 48 29 10 31 9 80 -59 43 -59 55 -69 80 -69 34 0 34 -1 20 70 -9 46
-7 55 11 81 20 28 20 30 3 59 l-18 30 -121 -3 c-80 -1 -174 5 -285 20 -217 30
-693 32 -917 6 -134 -16 -148 -16 -231 0 -117 23 -305 23 -350 0z m1911 -1039
c142 -7 149 -8 168 -32 36 -47 35 -70 -4 -110 l-36 -36 -103 11 c-76 9 -122 9
-173 1 -64 -10 -75 -9 -118 10 -45 20 -87 68 -87 100 0 8 10 28 22 44 l21 31
81 -6 c45 -4 148 -9 229 -13z m195 -709 c35 -7 43 -35 19 -64 -8 -9 -23 -61
-34 -116 -21 -99 -40 -161 -48 -154 -2 2 -8 73 -14 157 -12 162 -6 198 27 188
9 -2 32 -7 50 -11z m5405 -582 c4 -2 7 -15 7 -29 0 -24 -30 -44 -66 -44 -23 0
-38 43 -24 69 9 19 17 21 43 15 18 -3 35 -8 40 -11z m-855 -88 c58 -18 116
-54 120 -77 2 -9 -4 -28 -14 -42 -16 -25 -20 -26 -113 -25 -143 2 -155 6 -159
53 -3 29 3 48 24 78 31 44 36 44 142 13z m-4401 -81 c24 -24 25 -30 19 -85 -3
-33 -13 -73 -21 -89 -18 -34 -32 -31 -74 14 -20 22 -23 32 -19 80 5 58 29 106
54 106 8 0 27 -12 41 -26z m1393 -479 c0 -21 -5 -25 -30 -25 -31 0 -39 17 -18
38 22 22 48 14 48 -13z m4780 -323 c0 -10 -10 -29 -22 -42 l-23 -25 -3 30 c-3
19 2 33 14 42 24 18 34 16 34 -5z m-5728 -250 c47 -27 53 -50 40 -159 -7 -54
-19 -160 -27 -236 -16 -145 -40 -280 -56 -309 -5 -10 -16 -18 -23 -18 -18 0
-94 83 -106 116 -12 31 -12 106 -1 156 6 23 5 54 -1 78 -8 29 -7 58 1 100 9
44 9 75 0 124 -10 61 -9 68 12 106 38 68 91 82 161 42z m2418 -284 c-1 -7 -5
-33 -10 -58 -8 -42 -5 -50 32 -118 37 -67 39 -75 24 -90 -8 -10 -22 -34 -31
-55 -10 -24 -22 -37 -34 -37 -27 0 -36 78 -23 196 5 50 5 96 1 106 -11 21 9
68 28 68 7 0 13 -6 13 -12z m-4169 -657 c54 -55 30 -141 -41 -141 -65 0 -96
62 -65 131 15 32 23 39 47 39 19 0 40 -10 59 -29z m418 -68 c13 -25 28 -119
41 -258 14 -146 81 -614 157 -1098 68 -438 71 -413 -57 -404 -49 4 -112 15
-142 24 l-53 18 -7 60 c-11 101 -12 455 -5 1015 9 625 11 660 37 660 11 0 24
-8 29 -17z m7219 -61 c2 -24 -1 -32 -12 -32 -12 0 -16 10 -16 36 0 45 24 42
28 -4z m-4941 2 c6 -16 -42 -127 -63 -145 -8 -6 -13 12 -18 68 -7 84 -2 93 47
93 16 0 30 -7 34 -16z m-1327 -19 c34 -18 40 -56 14 -93 -13 -19 -24 -22 -78
-22 -49 0 -65 4 -70 16 -21 55 16 114 70 114 19 0 48 -7 64 -15z m1501 -27
c45 -167 49 -214 39 -453 -6 -126 -15 -290 -20 -363 -7 -86 -7 -139 -1 -151 6
-11 7 -41 1 -82 -5 -35 -10 -178 -10 -317 l0 -252 -32 -21 c-26 -16 -44 -19
-86 -15 -59 5 -138 39 -151 64 -5 11 4 88 25 207 46 256 73 442 84 583 5 64
34 278 65 474 30 196 55 359 55 363 0 3 4 5 10 5 5 0 14 -19 21 -42z m-231
-223 c0 -14 -4 -25 -10 -25 -5 0 -10 11 -10 25 0 14 5 25 10 25 6 0 10 -11 10
-25z m-1910 -1861 c0 -37 -14 -42 -34 -12 -7 12 -6 21 3 32 21 25 31 19 31
-20z m2136 -196 l37 -32 -25 -11 c-50 -20 -58 -34 -58 -96 0 -52 -2 -59 -20
-59 -19 0 -20 7 -20 103 0 136 17 155 86 95z m-2705 -499 c36 -25 39 -73 8
-113 l-21 -27 -126 3 -127 3 -19 36 c-19 35 -19 38 -2 64 26 40 70 54 169 55
74 0 94 -3 118 -21z"/>
<path d="M24494 9600 c-65 -32 -71 -45 -83 -155 -18 -158 -57 -402 -128 -788
-74 -406 -75 -372 14 -424 36 -21 51 -24 91 -18 40 5 53 2 82 -17 55 -37 59
-64 22 -143 -31 -66 -33 -67 -64 -62 -147 26 -190 18 -242 -43 -37 -44 -35
-94 5 -143 l30 -37 108 0 107 0 11 -30 c10 -25 6 -56 -18 -178 -36 -179 -56
-255 -81 -304 -17 -36 -21 -38 -66 -37 -26 0 -69 4 -95 8 -48 8 -48 8 -88 -37
-81 -93 -138 -263 -112 -333 10 -26 3 -72 -48 -316 -56 -270 -59 -289 -48
-344 14 -71 11 -89 -82 -509 -38 -174 -69 -334 -69 -356 0 -118 -64 -530 -151
-973 -47 -238 -49 -254 -34 -277 19 -30 42 -39 119 -48 72 -8 146 -39 146 -60
0 -20 -30 -50 -67 -69 -22 -11 -41 -12 -94 -4 -81 12 -107 -1 -151 -80 -30
-53 -30 -53 -78 -53 -69 0 -197 -26 -234 -48 -38 -22 -58 -59 -45 -83 15 -29
10 -120 -11 -225 -20 -96 -20 -99 -2 -124 36 -50 75 -60 223 -60 131 0 136 -1
159 -25 21 -23 22 -29 17 -132 -12 -257 -38 -446 -104 -748 -35 -165 -66 -308
-69 -317 -7 -25 37 -63 91 -78 34 -10 58 -10 99 -2 37 7 65 8 94 0 28 -7 50
-7 70 0 20 7 45 7 77 0 32 -7 88 -7 171 0 82 6 174 6 276 -1 136 -9 168 -8
283 10 92 14 136 17 152 10 27 -12 103 7 138 35 24 19 25 23 25 160 0 132 4
164 76 547 41 223 78 416 81 428 4 16 -4 31 -25 53 -36 36 -73 39 -117 10 -34
-22 -87 -26 -103 -7 -19 22 -33 96 -23 115 9 16 36 19 263 30 l253 12 250 -35
c378 -52 567 -70 606 -56 30 10 35 9 61 -16 25 -24 28 -33 28 -96 0 -78 74
-542 122 -766 35 -163 35 -165 24 -272 -7 -76 -7 -77 24 -112 17 -20 46 -41
64 -47 33 -10 319 -6 338 6 5 3 64 0 131 -6 89 -9 141 -9 190 -2 47 8 86 8
127 0 39 -6 74 -7 104 0 30 6 73 6 124 -1 64 -8 102 -6 227 12 83 12 178 29
213 38 53 13 62 19 62 38 0 27 -84 145 -102 145 -7 0 -32 -5 -55 -10 -32 -8
-64 -5 -138 10 -86 18 -137 20 -425 20 l-328 0 -21 34 c-25 41 -26 44 -1 76
l19 25 323 6 c307 5 326 6 388 29 62 23 66 23 111 7 65 -23 74 -22 93 17 39
82 41 124 12 272 -14 76 -33 185 -41 242 -16 108 -33 152 -84 216 -17 21 -31
44 -31 51 0 7 -15 26 -34 43 -33 29 -134 62 -236 77 -68 10 -112 45 -172 135
-29 44 -59 80 -66 80 -20 0 -65 -26 -86 -49 -28 -31 -42 -26 -60 19 -19 48
-21 110 -3 133 10 15 17 16 44 6 39 -13 66 3 136 81 l45 50 90 0 c103 0 134 9
157 44 16 24 16 27 -5 61 -12 19 -30 41 -41 49 -18 12 -19 18 -7 85 9 56 9 86
0 142 -7 41 -9 76 -4 83 5 7 -7 67 -30 151 -79 287 -125 564 -135 825 -4 98
-11 165 -19 181 -16 31 -78 64 -150 79 -27 6 -197 13 -379 17 -315 5 -331 6
-352 26 -29 26 -30 79 -2 118 l20 29 354 0 c298 0 362 3 402 16 26 9 51 19 56
23 8 8 -33 263 -58 363 -9 35 -25 77 -35 95 -15 25 -20 70 -30 232 -11 191
-14 212 -65 414 -69 273 -72 298 -50 347 16 36 22 40 64 45 221 28 221 28 221
143 -1 115 -22 165 -82 192 -24 11 -60 20 -80 20 -30 0 -38 4 -38 19 0 14 10
20 42 25 51 8 93 32 109 63 16 31 -2 93 -41 136 -28 31 -31 32 -132 38 -105 6
-182 31 -194 63 -3 8 4 32 14 53 20 38 21 39 101 51 97 14 163 41 186 76 16
24 16 28 1 61 -9 19 -20 58 -23 85 -5 41 -10 51 -27 55 -104 21 -248 61 -277
76 -35 17 -37 21 -44 86 -10 101 -33 195 -54 218 -14 15 -22 49 -31 140 -15
150 -33 255 -64 370 -13 50 -29 144 -35 210 -12 140 -31 220 -57 246 -31 30
-259 38 -1159 39 -800 0 -810 0 -851 -20z m1975 -329 c24 -34 26 -60 8 -85
-11 -15 -20 -17 -57 -9 -47 9 -57 24 -46 66 5 19 49 56 68 57 4 0 16 -13 27
-29z m81 -656 c0 -27 -10 -31 -40 -15 -25 14 -15 40 16 40 19 0 24 -5 24 -25z
m-1135 -1642 c11 -21 33 -52 48 -69 26 -30 29 -44 47 -211 44 -393 122 -958
241 -1732 44 -288 78 -529 75 -537 -4 -11 -32 -14 -128 -14 -68 0 -151 -5
-186 -10 -44 -8 -68 -7 -83 1 -15 8 -39 8 -87 0 -61 -10 -88 -8 -301 28 -128
22 -235 41 -237 43 -1 2 1 10 6 18 7 11 19 12 73 2 101 -19 117 -8 117 81 0
51 -2 57 -21 57 -11 0 -29 5 -40 10 -18 10 -19 24 -19 260 l0 250 25 6 c14 4
29 3 33 -1 4 -4 7 -50 8 -103 0 -75 4 -106 20 -137 20 -41 65 -68 84 -49 5 5
41 250 79 544 39 294 84 600 101 680 54 263 96 585 78 607 -6 7 -5 26 2 53 8
29 8 67 1 135 -15 129 -15 125 17 125 22 0 32 -8 47 -37z m1477 -300 c-4 -156
-14 -198 -43 -183 -29 16 -39 74 -39 222 l0 137 43 -19 42 -19 -3 -138z m325
-2485 c-2 -13 -4 -3 -4 22 0 25 2 35 4 23 2 -13 2 -33 0 -45z m0 -90 c-3 -7
-5 -2 -5 12 0 14 2 19 5 13 2 -7 2 -19 0 -25z m-160 -754 c-3 -3 -12 -4 -19
-1 -8 3 -5 6 6 6 11 1 17 -2 13 -5z"/>
<path d="M21625 9324 c-82 -17 -108 -29 -129 -58 -46 -62 -126 -214 -126 -239
0 -16 12 -36 36 -56 l35 -32 682 3 682 3 47 27 c57 34 114 99 168 195 l42 72
-22 36 c-21 35 -22 35 -93 35 -40 1 -157 5 -262 9 -114 5 -200 5 -214 -1 -16
-5 -28 -5 -35 2 -14 14 -321 13 -348 -1 -14 -8 -23 -8 -31 0 -14 14 -221 15
-247 1 -14 -7 -25 -7 -39 2 -15 9 -30 10 -61 1 -22 -5 -43 -6 -46 -2 -3 5 -8
8 -12 8 -4 -1 -16 -3 -27 -5z"/>
<path d="M2453 4839 c-68 -33 -68 -35 -19 -141 98 -208 91 -149 94 -779 3
-510 4 -558 20 -571 33 -29 89 -40 239 -45 123 -5 155 -9 167 -22 35 -39 39
-91 46 -551 6 -429 8 -459 29 -529 29 -97 53 -141 96 -179 l36 -32 437 1 c240
0 460 4 487 8 30 5 52 5 56 -1 4 -5 90 -4 225 3 217 12 219 13 255 41 l37 28
-24 82 c-43 147 -74 275 -95 395 -17 105 -18 128 -8 204 10 66 10 103 1 156
-10 59 -9 90 9 208 11 76 18 144 15 150 -11 31 -95 56 -210 65 -153 11 -253
56 -291 130 -13 26 -13 35 6 97 17 54 20 80 14 128 -8 66 -8 71 1 131 8 55
-16 106 -61 130 -26 14 -39 15 -57 8 -14 -7 -53 -8 -103 -3 -44 4 -147 8 -228
8 -158 1 -206 12 -227 51 -14 27 -7 50 29 84 24 23 32 26 49 17 32 -17 167
-13 280 9 56 11 138 20 181 20 68 0 80 3 99 23 28 30 28 80 3 391 -15 185 -22
232 -35 242 -48 34 -290 58 -556 54 -214 -3 -300 -4 -470 -2 -41 0 -97 0 -125
-1 -27 0 -66 0 -85 1 -19 0 -60 0 -90 -1 -30 -1 -84 1 -120 6 -55 6 -71 4
-107 -14z"/>
</g>
</svg>
